<svg width="28" height="28" viewBox="0 0 28 28" fill="none" xmlns="http://www.w3.org/2000/svg">
    <path d="M7 2.33333L3.5 7V23.3333C3.5 23.9522 3.74583 24.5457 4.18342 24.9832C4.621 25.4208 5.21449 25.6667 5.83333 25.6667H22.1667C22.7855 25.6667 23.379 25.4208 23.8166 24.9832C24.2542 24.5457 24.5 23.9522 24.5 23.3333V7L21 2.33333H7Z" stroke="#2C2C2C" stroke-width="2" stroke-linecap="round" stroke-linejoin="round"/>
    <path d="M3.5 7H24.5" stroke="#2C2C2C" stroke-width="2" stroke-linecap="round" stroke-linejoin="round"/>
    <path d="M18.6673 11.6667C18.6673 12.9043 18.1757 14.0913 17.3005 14.9665C16.4253 15.8417 15.2383 16.3333 14.0007 16.3333C12.763 16.3333 11.576 15.8417 10.7008 14.9665C9.82565 14.0913 9.33398 12.9043 9.33398 11.6667" stroke="#2C2C2C" stroke-width="2" stroke-linecap="round" stroke-linejoin="round"/>
</svg>
