<svg width="59" height="64" viewBox="0 0 59 64" fill="none" xmlns="http://www.w3.org/2000/svg">
<path d="M1.63331 62.5C4.48181 61.6923 8.90259 59.7982 13.9844 56.5807M39.5483 30.2897C31.7931 43.0233 22.0551 51.4708 13.9844 56.5807M13.9844 56.5807C31.1228 60.9292 63.6186 57.7112 56.4952 10.0514C40.7462 10.964 30.38 15.8945 23.4634 22.1567M9.10142 50.243C9.50271 48.4011 10.0091 46.0464 10.7813 43.4019M14.4694 33.9953C14.595 31.2399 14.2716 23.5056 11.9738 14.6121M14.4694 33.9953C12.784 37.2826 11.6243 40.5149 10.7813 43.4019M14.4694 33.9953C16.5425 29.9521 19.4108 25.8258 23.4634 22.1567M10.7813 43.4019C3.77741 37.2259 -6.02804 20.1991 10.7813 1.5C21.1568 6.06075 23.5591 17.1715 23.4634 22.1567" stroke="#2C2C2C" stroke-width="3" stroke-linecap="round" stroke-linejoin="round"/>
</svg>
