<svg width="60" height="65" viewBox="0 0 60 65" fill="none" xmlns="http://www.w3.org/2000/svg">
    <path d="M2.13331 63C4.98181 62.1923 9.40259 60.2982 14.4844 57.0807M40.0483 30.7897C32.2931 43.5233 22.5551 51.9708 14.4844 57.0807M14.4844 57.0807C31.6228 61.4292 64.1186 58.2112 56.9952 10.5514C41.2462 11.464 30.88 16.3945 23.9634 22.6567M9.60142 50.743C10.0027 48.9011 10.5091 46.5464 11.2813 43.9019M14.9694 34.4953C15.095 31.7399 14.7716 24.0056 12.4738 15.1121M14.9694 34.4953C13.284 37.7826 12.1243 41.0149 11.2813 43.9019M14.9694 34.4953C17.0425 30.4521 19.9108 26.3258 23.9634 22.6567M11.2813 43.9019C4.27741 37.7259 -5.52804 20.6991 11.2813 2C21.6568 6.56075 24.0591 17.6715 23.9634 22.6567" stroke="#2C2C2C" stroke-width="3" stroke-linecap="round" stroke-linejoin="round"/>
</svg>
