<svg width="246" height="27" viewBox="0 0 246 27" fill="none" xmlns="http://www.w3.org/2000/svg">
    <path d="M38.3603 0.881998L30.2603 27H25.3823L20.0363 9.918C19.9523 9.678 19.8683 9.414 19.7843 9.126C19.7003 8.838 19.6223 8.532 19.5503 8.208C19.4783 8.532 19.4003 8.838 19.3163 9.126C19.2323 9.414 19.1483 9.678 19.0643 9.918L13.6643 27H8.76828L0.686281 0.881998H5.22228C5.69028 0.881998 6.08028 0.989998 6.39228 1.206C6.71628 1.422 6.92628 1.71 7.02228 2.07L11.0723 16.794C11.1683 17.202 11.2643 17.646 11.3603 18.126C11.4683 18.594 11.5703 19.092 11.6663 19.62C11.7743 19.08 11.8883 18.576 12.0083 18.108C12.1283 17.64 12.2603 17.202 12.4043 16.794L17.1203 2.07C17.2163 1.77 17.4203 1.5 17.7323 1.26C18.0563 1.008 18.4463 0.881998 18.9023 0.881998H20.4863C20.9543 0.881998 21.3323 0.995999 21.6203 1.224C21.9203 1.44 22.1423 1.722 22.2863 2.07L26.9843 16.794C27.1283 17.178 27.2603 17.598 27.3803 18.054C27.5003 18.498 27.6143 18.972 27.7223 19.476C27.8183 18.972 27.9083 18.498 27.9923 18.054C28.0883 17.598 28.1843 17.178 28.2803 16.794L32.3303 2.07C32.4143 1.758 32.6183 1.482 32.9423 1.242C33.2663 1.002 33.6563 0.881998 34.1123 0.881998H38.3603ZM53.2935 17.082L50.4675 9.09C50.2995 8.67 50.1195 8.178 49.9275 7.614C49.7475 7.05 49.5735 6.438 49.4055 5.778C49.2375 6.45 49.0575 7.074 48.8655 7.65C48.6855 8.214 48.5115 8.706 48.3435 9.126L45.5355 17.082H53.2935ZM62.3655 27H58.1715C57.7035 27 57.3195 26.892 57.0195 26.676C56.7315 26.448 56.5155 26.16 56.3715 25.812L54.6075 20.826H44.2035L42.4395 25.812C42.3195 26.112 42.1095 26.388 41.8095 26.64C41.5095 26.88 41.1315 27 40.6755 27H36.4455L46.6515 0.881998H52.1775L62.3655 27ZM72.9549 13.248C73.8309 13.248 74.5869 13.14 75.2229 12.924C75.8589 12.696 76.3809 12.39 76.7889 12.006C77.1969 11.61 77.4969 11.148 77.6889 10.62C77.8809 10.092 77.9769 9.516 77.9769 8.892C77.9769 7.656 77.5629 6.696 76.7349 6.012C75.9189 5.328 74.6709 4.986 72.9909 4.986H70.1829V13.248H72.9549ZM85.6089 27H80.7309C79.8189 27 79.1589 26.652 78.7509 25.956L73.7829 17.946C73.5789 17.634 73.3509 17.406 73.0989 17.262C72.8589 17.118 72.4989 17.046 72.0189 17.046H70.1829V27H64.7829V0.881998H72.9909C74.8149 0.881998 76.3749 1.074 77.6709 1.458C78.9669 1.83 80.0289 2.352 80.8569 3.024C81.6849 3.696 82.2909 4.5 82.6749 5.436C83.0589 6.36 83.2509 7.38 83.2509 8.496C83.2509 9.36 83.1249 10.182 82.8729 10.962C82.6329 11.73 82.2789 12.432 81.8109 13.068C81.3429 13.704 80.7669 14.268 80.0829 14.76C79.3989 15.252 78.6189 15.648 77.7429 15.948C78.0909 16.14 78.4149 16.374 78.7149 16.65C79.0149 16.914 79.2849 17.232 79.5249 17.604L85.6089 27ZM116.962 0.881998V27H112.192V10.962C112.192 10.626 112.198 10.266 112.21 9.882C112.234 9.498 112.27 9.108 112.318 8.712L104.848 22.878C104.44 23.658 103.81 24.048 102.958 24.048H102.202C101.782 24.048 101.41 23.952 101.086 23.76C100.762 23.556 100.504 23.262 100.312 22.878L92.8058 8.658C92.8418 9.078 92.8718 9.486 92.8958 9.882C92.9198 10.266 92.9318 10.626 92.9318 10.962V27H88.1618V0.881998H92.2658C92.4938 0.881998 92.6978 0.887999 92.8778 0.899999C93.0578 0.911998 93.2138 0.947998 93.3458 1.008C93.4898 1.056 93.6158 1.14 93.7238 1.26C93.8438 1.368 93.9578 1.524 94.0658 1.728L101.374 15.66C101.602 16.08 101.812 16.512 102.004 16.956C102.208 17.4 102.4 17.856 102.58 18.324C102.76 17.844 102.946 17.376 103.138 16.92C103.342 16.464 103.558 16.026 103.786 15.606L111.04 1.728C111.148 1.524 111.262 1.368 111.382 1.26C111.502 1.14 111.628 1.056 111.76 1.008C111.904 0.947998 112.06 0.911998 112.228 0.899999C112.408 0.887999 112.618 0.881998 112.858 0.881998H116.962ZM153.321 0.881998V27H147.885V15.75H136.383V27H130.947V0.881998H136.383V11.97H147.885V0.881998H153.321ZM164.227 5.112V11.826H172.939V15.912H164.227V22.77H175.423V27H158.791V0.881998H175.423V5.112H164.227ZM193.251 17.082L190.425 9.09C190.257 8.67 190.077 8.178 189.885 7.614C189.705 7.05 189.531 6.438 189.363 5.778C189.195 6.45 189.015 7.074 188.823 7.65C188.643 8.214 188.469 8.706 188.301 9.126L185.493 17.082H193.251ZM202.323 27H198.129C197.661 27 197.277 26.892 196.977 26.676C196.689 26.448 196.473 26.16 196.329 25.812L194.565 20.826H184.161L182.397 25.812C182.277 26.112 182.067 26.388 181.767 26.64C181.467 26.88 181.089 27 180.633 27H176.403L186.609 0.881998H192.135L202.323 27ZM212.912 13.248C213.788 13.248 214.544 13.14 215.18 12.924C215.816 12.696 216.338 12.39 216.746 12.006C217.154 11.61 217.454 11.148 217.646 10.62C217.838 10.092 217.934 9.516 217.934 8.892C217.934 7.656 217.52 6.696 216.692 6.012C215.876 5.328 214.628 4.986 212.948 4.986H210.14V13.248H212.912ZM225.566 27H220.688C219.776 27 219.116 26.652 218.708 25.956L213.74 17.946C213.536 17.634 213.308 17.406 213.056 17.262C212.816 17.118 212.456 17.046 211.976 17.046H210.14V27H204.74V0.881998H212.948C214.772 0.881998 216.332 1.074 217.628 1.458C218.924 1.83 219.986 2.352 220.814 3.024C221.642 3.696 222.248 4.5 222.632 5.436C223.016 6.36 223.208 7.38 223.208 8.496C223.208 9.36 223.082 10.182 222.83 10.962C222.59 11.73 222.236 12.432 221.768 13.068C221.3 13.704 220.724 14.268 220.04 14.76C219.356 15.252 218.576 15.648 217.7 15.948C218.048 16.14 218.372 16.374 218.672 16.65C218.972 16.914 219.242 17.232 219.482 17.604L225.566 27ZM246.007 5.238H238.375V27H232.957V5.238H225.325V0.881998H246.007V5.238Z" fill="#2C2C2C"/>
</svg>
