<svg width="50" height="21" viewBox="0 0 50 21" fill="none" xmlns="http://www.w3.org/2000/svg">
    <path d="M29.8212 0.685999L23.5212 21H19.7272L15.5692 7.714C15.5039 7.52733 15.4386 7.322 15.3732 7.098C15.3079 6.874 15.2472 6.636 15.1912 6.384C15.1352 6.636 15.0746 6.874 15.0092 7.098C14.9439 7.322 14.8786 7.52733 14.8132 7.714L10.6132 21H6.80523L0.519234 0.685999H4.04723C4.41123 0.685999 4.71457 0.769999 4.95723 0.937999C5.20923 1.106 5.37257 1.33 5.44723 1.61L8.59723 13.062C8.6719 13.3793 8.74657 13.7247 8.82123 14.098C8.90523 14.462 8.98457 14.8493 9.05924 15.26C9.14324 14.84 9.2319 14.448 9.32524 14.084C9.41857 13.72 9.52123 13.3793 9.63324 13.062L13.3012 1.61C13.3759 1.37667 13.5346 1.16667 13.7772 0.979999C14.0292 0.783999 14.3326 0.685999 14.6872 0.685999H15.9192C16.2832 0.685999 16.5772 0.774666 16.8012 0.951999C17.0346 1.12 17.2072 1.33933 17.3192 1.61L20.9732 13.062C21.0852 13.3607 21.1879 13.6873 21.2812 14.042C21.3746 14.3873 21.4632 14.756 21.5472 15.148C21.6219 14.756 21.6919 14.3873 21.7572 14.042C21.8319 13.6873 21.9066 13.3607 21.9812 13.062L25.1312 1.61C25.1966 1.36733 25.3552 1.15267 25.6072 0.965998C25.8592 0.779332 26.1626 0.685999 26.5172 0.685999H29.8212ZM49.5085 0.685999V21H45.2805V12.25H36.3345V21H32.1065V0.685999H36.3345V9.31H45.2805V0.685999H49.5085Z" fill="#2C2C2C"/>
</svg>
